<svg width="24" height="26" viewBox="0 0 24 26" fill="none" xmlns="http://www.w3.org/2000/svg">
<path d="M23.1666 11.2505C23.1666 5.03713 18.018 0 11.6666 0C5.31545 0 0.166626 5.03713 0.166626 11.2505C0.166626 17.358 5.14139 22.3286 11.3428 22.4963L10.6061 26L18.3563 20.4025L18.3557 20.4026C21.2684 18.3616 23.1666 15.0229 23.1666 11.2505ZM11.9574 18.2273C11.8219 18.2273 11.686 18.2244 11.5498 18.2188C9.02283 18.1146 6.68715 17.0527 4.97318 15.2285L5.50103 14.3498C7.0854 16.036 9.24432 17.0177 11.5799 17.114C13.9159 17.2104 16.1514 16.4096 17.8749 14.8596L18.3601 15.78C16.5959 17.3664 14.3359 18.2273 11.9574 18.2273Z" fill="#3E7BE7"/>
</svg>
