<svg width="216" height="36" viewBox="0 0 216 36" fill="none" xmlns="http://www.w3.org/2000/svg">
    <path fill-rule="evenodd" clip-rule="evenodd"
          d="M0 13.973L6.04576 31.8498L25.1964 35.7536L38.3013 21.7806L32.2555 3.9038L13.1049 0L0 13.973ZM9.31589 7.83125L5.82057 23.2679L20.1084 31.1033L32.4341 20.5091L25.764 6.12625L9.31589 7.83125Z"
          fill="#3889FA"/>
    <path d="M45.4395 8.8087H54.554C56.3078 8.8087 57.6808 9.22539 58.6728 10.0588C59.6649 10.8921 60.1609 12.0997 60.1609 13.6814C60.1609 14.4808 59.9661 15.2121 59.5763 15.8754C59.1866 16.5217 58.6551 17.0234 57.9819 17.3806C58.9031 17.7037 59.594 18.1969 60.0546 18.8602C60.5152 19.5065 60.7455 20.3569 60.7455 21.4114C60.7455 22.4829 60.4887 23.4183 59.9749 24.2176C59.4789 25 58.788 25.6038 57.9022 26.029C57.0342 26.4371 56.0687 26.6412 55.0058 26.6412H45.4395V8.8087ZM53.7834 16.054C54.492 16.054 55.05 15.8839 55.4575 15.5437C55.865 15.2036 56.0687 14.6593 56.0687 13.911C56.0687 13.0946 55.865 12.5334 55.4575 12.2272C55.0678 11.9211 54.4654 11.768 53.6505 11.768H49.4786V16.054H53.7834ZM54.0226 23.6819C54.8906 23.6819 55.5461 23.5203 55.989 23.1972C56.4496 22.857 56.6799 22.2703 56.6799 21.4369C56.6799 20.5865 56.4407 19.9742 55.9624 19.6001C55.5018 19.2259 54.8109 19.0388 53.8897 19.0388H49.4786V23.6819H54.0226Z"
          fill="#3889FA"/>
    <path d="M63.0078 8.8087H67.0469V23.4013H75.5503V26.6412H63.0078V8.8087Z" fill="#3889FA"/>
    <path d="M85.2341 27.0239C83.374 27.0239 81.6821 26.6327 80.1586 25.8504C78.6528 25.068 77.4659 23.9795 76.5978 22.5849C75.7298 21.1733 75.2957 19.5575 75.2957 17.7377C75.2957 15.9179 75.7298 14.3022 76.5978 12.8905C77.4659 11.4789 78.6528 10.3819 80.1586 9.59955C81.6821 8.8172 83.374 8.42603 85.2341 8.42603C87.0942 8.42603 88.7683 8.8172 90.2564 9.59955C91.7622 10.3819 92.9491 11.4789 93.8172 12.8905C94.6852 14.3022 95.1192 15.9179 95.1192 17.7377C95.1192 19.5575 94.6852 21.1733 93.8172 22.5849C92.9491 23.9795 91.7622 25.068 90.2564 25.8504C88.7683 26.6327 87.0942 27.0239 85.2341 27.0239ZM85.2341 23.4523C86.297 23.4523 87.2625 23.2227 88.1305 22.7635C89.0163 22.2873 89.7161 21.624 90.2298 20.7736C90.7435 19.9062 91.0004 18.8942 91.0004 17.7377C91.0004 16.5982 90.7435 15.6033 90.2298 14.7529C89.7338 13.8855 89.0429 13.2222 88.1571 12.763C87.2891 12.2868 86.3147 12.0487 85.2341 12.0487C84.1357 12.0487 83.1437 12.2868 82.2579 12.763C81.3898 13.2222 80.6989 13.8855 80.1852 14.7529C79.6714 15.6033 79.4146 16.5982 79.4146 17.7377C79.4146 18.8942 79.6714 19.9062 80.1852 20.7736C80.6989 21.624 81.3987 22.2873 82.2845 22.7635C83.1702 23.2227 84.1534 23.4523 85.2341 23.4523Z"
          fill="#3889FA"/>
    <path d="M106.464 27.0239C104.48 27.0239 102.726 26.6497 101.202 25.9014C99.6789 25.1361 98.5008 24.0561 97.6682 22.6614C96.8356 21.2668 96.4193 19.6256 96.4193 17.7377C96.4193 15.8499 96.8356 14.2086 97.6682 12.814C98.5008 11.4024 99.6789 10.3224 101.202 9.57404C102.726 8.8087 104.48 8.42603 106.464 8.42603C109.033 8.42603 111.176 8.98728 112.895 10.1098V13.7834C112.115 13.1542 111.22 12.7035 110.211 12.4313C109.219 12.1422 108.085 11.9976 106.809 11.9976C104.878 11.9976 103.346 12.5164 102.212 13.5538C101.096 14.5743 100.538 15.9689 100.538 17.7377C100.538 19.5235 101.105 20.9352 102.239 21.9726C103.373 22.9931 104.896 23.5033 106.809 23.5033C108.12 23.5033 109.281 23.3588 110.29 23.0696C111.3 22.7635 112.239 22.2788 113.107 21.6155V25.2891C111.477 26.4456 109.263 27.0239 106.464 27.0239Z"
          fill="#3889FA"/>
    <path d="M115.375 8.8087H119.414V16.5642L126.43 8.8087H131.24L123.374 17.5081L131.771 26.6412H126.961L119.414 18.452V26.6412H115.375V8.8087Z"
          fill="#3889FA"/>
    <path d="M138.654 27.0239C137.52 27.0239 136.395 26.9219 135.279 26.7178C134.163 26.5137 133.251 26.2416 132.542 25.9014V22.4829C133.481 22.9251 134.455 23.2567 135.465 23.4778C136.475 23.6989 137.44 23.8095 138.362 23.8095C139.389 23.8095 140.168 23.6394 140.7 23.2992C141.231 22.9591 141.497 22.4829 141.497 21.8706C141.497 21.4284 141.364 21.0542 141.099 20.7481C140.833 20.4419 140.443 20.1698 139.929 19.9317C139.433 19.6766 138.663 19.3449 137.617 18.9368C135.881 18.2565 134.624 17.4996 133.844 16.6662C133.065 15.8159 132.675 14.7699 132.675 13.5283C132.675 12.5249 132.958 11.6405 133.525 10.8751C134.092 10.0928 134.889 9.489 135.917 9.06381C136.944 8.63862 138.131 8.42603 139.478 8.42603C140.576 8.42603 141.55 8.51106 142.401 8.68114C143.251 8.85122 144.084 9.11484 144.898 9.472V12.7885C143.34 12.0402 141.781 11.666 140.222 11.666C139.23 11.666 138.45 11.8361 137.883 12.1762C137.316 12.4994 137.033 12.9671 137.033 13.5793C137.033 14.0215 137.166 14.3872 137.431 14.6763C137.697 14.9655 138.069 15.2206 138.548 15.4417C139.026 15.6628 139.805 15.9859 140.886 16.4111C142.144 16.9214 143.127 17.4146 143.836 17.8908C144.544 18.35 145.067 18.9027 145.403 19.549C145.74 20.1783 145.908 20.9607 145.908 21.8961C145.908 23.5118 145.297 24.7704 144.075 25.6718C142.87 26.5732 141.063 27.0239 138.654 27.0239Z"
          fill="#3889FA"/>
    <path d="M148.177 8.8087H155.989C158.097 8.8087 159.78 9.34444 161.038 10.4159C162.296 11.4704 162.925 12.9416 162.925 14.8294C162.925 16.7683 162.296 18.2565 161.038 19.2939C159.798 20.3314 158.115 20.8501 155.989 20.8501H152.216V26.6412H148.177V8.8087ZM155.404 17.6102C157.69 17.6102 158.832 16.6832 158.832 14.8294C158.832 13.7919 158.522 13.0691 157.902 12.6609C157.3 12.2527 156.467 12.0487 155.404 12.0487H152.216V17.6102H155.404Z"
          fill="#3889FA"/>
    <path d="M173.802 27.0239C171.942 27.0239 170.25 26.6327 168.727 25.8504C167.221 25.068 166.034 23.9795 165.166 22.5849C164.298 21.1733 163.864 19.5575 163.864 17.7377C163.864 15.9179 164.298 14.3022 165.166 12.8905C166.034 11.4789 167.221 10.3819 168.727 9.59955C170.25 8.8172 171.942 8.42603 173.802 8.42603C175.662 8.42603 177.337 8.8172 178.825 9.59955C180.33 10.3819 181.517 11.4789 182.385 12.8905C183.253 14.3022 183.687 15.9179 183.687 17.7377C183.687 19.5575 183.253 21.1733 182.385 22.5849C181.517 23.9795 180.33 25.068 178.825 25.8504C177.337 26.6327 175.662 27.0239 173.802 27.0239ZM173.802 23.4523C174.865 23.4523 175.831 23.2227 176.699 22.7635C177.585 22.2873 178.284 21.624 178.798 20.7736C179.312 19.9062 179.569 18.8942 179.569 17.7377C179.569 16.5982 179.312 15.6033 178.798 14.7529C178.302 13.8855 177.611 13.2222 176.725 12.763C175.857 12.2868 174.883 12.0487 173.802 12.0487C172.704 12.0487 171.712 12.2868 170.826 12.763C169.958 13.2222 169.267 13.8855 168.753 14.7529C168.24 15.6033 167.983 16.5982 167.983 17.7377C167.983 18.8942 168.24 19.9062 168.753 20.7736C169.267 21.624 169.967 22.2873 170.853 22.7635C171.738 23.2227 172.722 23.4523 173.802 23.4523Z"
          fill="#3889FA"/>
    <path d="M185.908 8.8087H193.96C196.068 8.8087 197.707 9.31893 198.876 10.3394C200.063 11.3428 200.656 12.797 200.656 14.7019C200.656 16.0285 200.337 17.1595 199.7 18.0949C199.062 19.0133 198.158 19.6851 196.989 20.1103L200.523 26.6412H196.378L193.109 20.595H189.947V26.6412H185.908V8.8087ZM193.242 17.355C194.27 17.355 195.076 17.1425 195.661 16.7173C196.263 16.2921 196.564 15.6203 196.564 14.7019C196.564 13.7324 196.272 13.0521 195.687 12.6609C195.102 12.2527 194.288 12.0487 193.242 12.0487H189.947V17.355H193.242Z"
          fill="#3889FA"/>
    <path d="M206.409 12.0487H200.988V8.8087H215.869V12.0487H210.448V26.6412H206.409V12.0487Z" fill="#3889FA"/>
</svg>
