<?xml version="1.0" encoding="utf-8"?>
<!-- Generator: Adobe Illustrator 24.1.2, SVG Export Plug-In . SVG Version: 6.00 Build 0)  -->
<svg version="1.1" id="Layer_1" xmlns="http://www.w3.org/2000/svg" xmlns:xlink="http://www.w3.org/1999/xlink" x="0px" y="0px"
	 viewBox="0 0 125 52" style="enable-background:new 0 0 125 52;" xml:space="preserve">
<style type="text/css">
	.st0{fill:#FFFFFF;}
	.st1{fill:#D2D5D8;}
	.st2{fill:none;stroke:#FFFFFF;strokeWidth:2;}
</style>
<path class="st0" d="M61.8,11h8.4v0.8h-7.5v6h6.6v0.8h-6.6v6.1h7.7v0.8h-8.6V11z"/>
<path class="st0" d="M84.9,11.8h-5v13.7h-0.9V11.8h-5V11h10.8V11.8z"/>
<path class="st0" d="M89.9,11h0.9v6.8h9.3V11h0.9v14.5h-0.9v-6.9h-9.3v6.9h-0.9V11z"/>
<path class="st0" d="M115.7,21.2h-7.2l-1.7,4.3h-0.9l5.7-14.5h1.1l5.7,14.5h-0.9L115.7,21.2z M115.4,20.4l-3.3-8.4l-3.3,8.4H115.4z"
	/>
<path class="st0" d="M69,41v0.8h-7.2V28.7h1V41H69z"/>
<path class="st0" d="M83.1,41l0,0.8h-7.8V28.7h7.8v0.8h-6.9v5.3h5.7v0.8h-5.7V41H83.1z"/>
<path class="st0" d="M100.1,28.7v13.1h-0.4c-0.1,0-0.1,0-0.2,0c-0.1,0-0.1-0.1-0.2-0.1l-8.5-11.4c0,0.2,0,0.4,0,0.5v11H90V28.7h0.5
	c0.1,0,0.2,0,0.2,0c0,0,0.1,0.1,0.2,0.1l8.5,11.3c0-0.2,0-0.4,0-0.5v-11H100.1L100.1,28.7z"/>
<path class="st0" d="M119,35.2c0,1-0.2,1.9-0.5,2.7c-0.3,0.8-0.7,1.5-1.3,2.1c-0.6,0.6-1.2,1-2,1.3c-0.8,0.3-1.6,0.5-2.5,0.5H108
	V28.7h4.8c0.9,0,1.8,0.2,2.5,0.5c0.8,0.3,1.4,0.7,2,1.3c0.5,0.6,1,1.3,1.3,2.1C118.9,33.3,119,34.2,119,35.2z M118.1,35.2
	c0-0.9-0.1-1.7-0.4-2.4c-0.3-0.7-0.6-1.3-1.1-1.8c-0.5-0.5-1-0.9-1.7-1.1c-0.6-0.3-1.4-0.4-2.1-0.4H109V41h3.8
	c0.8,0,1.5-0.1,2.1-0.4c0.6-0.3,1.2-0.6,1.7-1.1c0.5-0.5,0.8-1.1,1.1-1.8C117.9,37,118.1,36.2,118.1,35.2z"/>
<g>
	<path class="st1" d="M32.3,29.2l-16-7.4v-5.2l16,7.4V29.2z"/>
	<path class="st1" d="M16.3,36.6l16-7.4V24l-16,7.4V36.6z"/>
	<path class="st0" d="M36.5,21.8H16.3v-5.2h22L36.5,21.8z"/>
	<path class="st0" d="M32.4,29.2H12.3L10.4,24h21.9V29.2z"/>
	<path class="st0" d="M36.5,36.6H16.3v-5.2h22L36.5,36.6z"/>
</g>
<path class="st2" d="M25.9,1.4L25.9,1.4c13.6,0,24.6,11,24.6,24.6v0.1c0,13.6-11,24.6-24.6,24.6h0c-13.6,0-24.6-11-24.6-24.6V26
	C1.4,12.4,12.4,1.4,25.9,1.4z"/>
</svg>
