<?xml version="1.0" standalone="no"?><!DOCTYPE svg PUBLIC "-//W3C//DTD SVG 1.1//EN" "http://www.w3.org/Graphics/SVG/1.1/DTD/svg11.dtd"><svg class="icon" width="200px" height="200.00px" viewBox="0 0 1024 1024" version="1.1" xmlns="http://www.w3.org/2000/svg"><path fill="#ffffff" d="M727.466667 309.333333c-12.8-6.4-14.933333-21.333333-6.4-32 6.4-8.533333 12.8-17.066667 17.066666-25.6 40.533333-70.4 38.4-151.466667-8.533333-177.066666-10.666667-6.4-21.333333-8.533333-34.133333-8.533334-12.8 0-23.466667 2.133333-36.266667 8.533334-2.133333 2.133333-6.4 2.133333-8.533333 2.133333-6.4 0-12.8-2.133333-17.066667-8.533333-27.733333-38.4-72.533333-64-123.733333-64s-96 25.6-123.733334 64c-4.266667 6.4-10.666667 8.533333-17.066666 8.533333-2.133333 0-6.4 0-8.533334-2.133333-10.666667-8.533333-23.466667-10.666667-34.133333-10.666667-12.8 0-23.466667 2.133333-34.133333 8.533333-44.8 25.6-49.066667 106.666667-8.533334 177.066667 6.4 8.533333 10.666667 19.2 17.066667 25.6 8.533333 10.666667 6.4 25.6-6.4 32C145.066667 386.133333 42.666667 544 42.666667 725.333333c0 91.733333 29.866667 177.066667 78.933333 247.466667 23.466667 32 61.866667 51.2 102.4 51.2h576c40.533333 0 78.933333-19.2 102.4-51.2C951.466667 902.4 981.333333 817.066667 981.333333 725.333333c0-181.333333-102.4-339.2-253.866666-416zM512 874.666667c0-117.333333-96-213.333333-213.333333-213.333334 117.333333 0 213.333333-96 213.333333-213.333333 0 117.333333 96 213.333333 213.333333 213.333333-117.333333 0-213.333333 96-213.333333 213.333334z"  /></svg>