<svg width="35" height="31" viewBox="0 0 35 31" fill="none" xmlns="http://www.w3.org/2000/svg">
<path fill-rule="evenodd" clip-rule="evenodd" d="M31.6667 27.9167C31.6667 29.5276 24.578 30.8333 15.8333 30.8333C7.08897 30.8333 0 29.5276 0 27.9167C0 26.3058 7.08897 25 15.8333 25C24.578 25 31.6667 26.3058 31.6667 27.9167Z" fill="#272828"/>
<path fill-rule="evenodd" clip-rule="evenodd" d="M29.6174 5.52308C24.8047 0.559875 17.8166 -0.523171 12.8836 2.55756L11.5603 2.47008C9.97273 2.3652 8.65825 3.72481 8.76459 5.36148L8.86702 6.93815C6.26445 11.9843 7.40683 18.8562 12.0478 23.6422C16.7197 28.4599 23.4427 29.6239 28.3447 26.8696L30.0457 26.9874C31.633 27.097 32.9514 25.7415 32.8497 24.1043L32.7402 22.3428C35.42 17.2866 34.2936 10.3454 29.6174 5.52308Z" fill="#F5BA5D"/>
<path fill-rule="evenodd" clip-rule="evenodd" d="M7.77974 9.84195C7.77974 9.84195 10.8066 19.6843 23.4585 21.1979C30.0457 21.9858 34.1666 16.7543 34.1666 16.7543L33.3878 18.5983L32.3619 23.0978L30.5574 26.1503L25.0211 27.5H21.3485L15.4486 24.992L11.0487 21.3796L8.29219 17.3397L7.10523 14.2012L6.66663 11.8846V9.16663L7.77974 9.84195Z" fill="#EDA340"/>
<path fill-rule="evenodd" clip-rule="evenodd" d="M10.9505 4.13352C10.5738 4.13352 10.2228 4.28324 9.95368 4.56126C9.66198 4.86221 9.51674 5.26146 9.54417 5.68567L9.6703 7.62043L9.50645 7.93801C7.09078 12.6116 8.3127 18.869 12.4776 23.1552C16.6819 27.4822 22.7991 28.7205 27.3535 26.1667L27.666 25.9916L29.7253 26.1337C30.1373 26.1617 30.5255 26.0122 30.8179 25.7123C31.1103 25.4121 31.2571 25.0133 31.2306 24.5891L31.0981 22.4636L31.2686 22.1432C33.7587 17.4545 32.5578 11.1545 28.3484 6.82242C24.038 2.38654 17.618 1.21853 13.0833 4.0443L12.7546 4.24922L11.0451 4.13655C11.0135 4.13453 10.9819 4.13352 10.9505 4.13352ZM10.7458 24.9378C5.92086 19.9723 4.48243 12.6842 7.18049 7.08182L7.10065 5.85432C7.02619 4.71202 7.43399 3.59215 8.21946 2.78155C9.00468 1.97094 10.0907 1.54749 11.2016 1.62134L12.1549 1.68411C17.6154 -1.47462 25.088 -0.0976567 30.0803 5.04019C34.9572 10.0591 36.3714 17.3979 33.5873 23.0214L33.6748 24.4281C33.746 25.5704 33.335 26.689 32.5474 27.4971C31.7597 28.3052 30.6747 28.7249 29.5615 28.6485L28.2027 28.5547C26.3398 29.5282 24.283 29.9997 22.1884 30C18.1423 30 13.9551 28.2404 10.7458 24.9378Z" fill="#404040"/>
<path fill-rule="evenodd" clip-rule="evenodd" d="M26.5666 10.8334C26.2412 10.8334 25.9251 10.6712 25.7532 10.3824V10.3826C25.7528 10.3826 25.6134 10.1697 25.278 9.85488C24.9108 9.51002 24.9069 8.9473 25.2692 8.59789C25.6314 8.24849 26.2227 8.24473 26.5899 8.5896C27.1141 9.08181 27.3389 9.4397 27.3786 9.50646C27.6328 9.93349 27.4749 10.4759 27.0259 10.7178C26.8806 10.7962 26.7225 10.8334 26.5666 10.8334Z" fill="#FCF3F7"/>
<path fill-rule="evenodd" clip-rule="evenodd" d="M22.2532 7.5C22.1069 7.5 21.9582 7.47387 21.8157 7.4189C19.0329 6.34167 16.5084 7.20488 16.483 7.21387C15.9302 7.40804 15.3016 7.17499 15.0785 6.69322C14.8557 6.21125 15.1232 5.66343 15.676 5.46905C15.8134 5.42098 19.0831 4.30278 22.6918 5.69959C23.2368 5.91069 23.4821 6.46624 23.2401 6.94111C23.0614 7.29162 22.6669 7.5 22.2532 7.5Z" fill="#FCF3F7"/>
</svg>
