<?xml version="1.0" standalone="no"?><!DOCTYPE svg PUBLIC "-//W3C//DTD SVG 1.1//EN" "http://www.w3.org/Graphics/SVG/1.1/DTD/svg11.dtd"><svg t="1697196474414" class="icon" viewBox="0 0 1024 1024" version="1.1" xmlns="http://www.w3.org/2000/svg" p-id="1420" xmlns:xlink="http://www.w3.org/1999/xlink" width="200" height="200"><path d="M512.1024 1024a512 512 0 1 0-512-512 512 512 0 0 0 512 512" fill="#1284C7" p-id="1421"></path><path d="M368.4864 725.76H268.4928V406.9376h99.9936zM315.9552 367.0016h-0.7168a55.3984 55.3984 0 0 1-59.648-55.2448 60.928 60.928 0 1 1 60.3648 55.2448z m452.5056 358.7584h-113.3568v-165.0176c0-43.2128-17.7152-72.6528-56.7296-72.6528a57.2416 57.2416 0 0 0-54.1184 39.0656 73.216 73.216 0 0 0-2.4576 26.0608v172.544H429.5168s1.4848-292.2496 0-318.8736h112.2816v50.0224a102.4 102.4 0 0 1 99.7888-53.0944c71.0144 0 126.8224 46.08 126.8224 144.64z" fill="#FFFFFF" p-id="1422"></path></svg>