<?xml version="1.0" encoding="UTF-8"?>
<svg width="228px" height="200px" viewBox="0 0 228 200" version="1.1" xmlns="http://www.w3.org/2000/svg" xmlns:xlink="http://www.w3.org/1999/xlink">
    <title>兔子</title>
    <g id="Page-1" stroke="none" stroke-width="1" fill="none" fill-rule="evenodd">
        <g id="兔子" transform="translate(-0.000013, 0.004987)" fill="#FFFFFF" fill-rule="nonzero">
            <path d="M6.78792892e-15,169.10335 C0.0199928722,176.20718 5.77384664,181.961034 12.8776766,181.980905 C15.6494107,181.975559 18.3522482,181.116714 20.6186786,179.521148 C26.8144358,184.696058 34.3305085,188.04071 42.3224225,189.179314 L47.4228024,190.047463 C46.7486806,193.12548 46.397111,196.26536 46.3737881,199.416246 L46.3737881,199.850321 L121.215532,199.850321 L121.215532,193.7371 C118.388027,189.180103 114.124876,185.693227 109.097608,183.825723 L89.9259674,183.825723 L85.6937374,180.714853 L124.905168,170.767304 L127.111715,174.20373 L133.044072,189.794253 L136.408152,199.995013 L177.247364,199.995013 L177.247364,193.628581 C175.033232,191.411721 172.46618,189.578113 169.651053,188.202645 L164.948575,185.923752 L156.990536,173.624964 L156.990536,151.595664 C166.015615,143.225893 174.283157,134.074705 181.696631,124.248946 L183.324412,124.068082 L220.184604,114.373743 L220.365468,114.373743 L227.419185,103.521871 L227.419185,96.7937105 L210.128536,77.7667616 C205.480065,72.697222 199.841577,68.634556 193.561345,65.8297024 L190.920722,56.0991905 L184.481945,30.8505019 L178.69428,17.683564 L161.222766,2.05686827 C158.619972,-0.101246152 155.021919,-0.605253451 151.926329,0.754643659 C150.594736,1.32784224 149.426347,2.22277872 148.526076,3.35909288 L147.07916,2.05686827 C144.151341,-0.207432335 140.139262,-0.459037331 136.951497,1.42174365 C133.763733,3.30252462 132.043845,6.93599032 132.609997,10.5936741 L144.402365,47.8517679 L158.618317,60.5122853 L161.15042,67.2404458 C156.79652,71.2307701 152.945794,75.7374565 149.683609,80.660594 L148.164347,82.9033144 L38.7413047,103.811254 C27.4973186,106.394155 17.7440953,113.346895 11.6356861,123.133924 C5.52727683,132.920953 3.56624285,144.737057 6.18568892,155.972585 C6.18568892,156.587525 6.51124517,157.202464 6.69210963,157.817404 C2.55141523,160.058015 -0.0204020791,164.39535 6.78792892e-15,169.10335 L6.78792892e-15,169.10335 Z" id="Path"></path>
        </g>
    </g>
</svg>